<svg width="119" height="187" viewBox="0 0 119 187" fill="none" xmlns="http://www.w3.org/2000/svg">
<g clip-path="url(#clip0_206_193)">
<path d="M71.618 138.856C70.6668 137.925 49.5608 137.363 48.1763 138.43C42.3746 142.892 57.4084 146.555 52.8152 153.794C49.082 159.677 38.2276 154.184 36.9963 148.365C32.706 128.07 51.6587 127.802 66.0182 128.849C77.9443 129.718 84.4073 134.024 82.7785 147.186C81.1823 160.079 62.1449 158.052 67.015 147.387C67.963 145.31 75.0385 142.199 71.6213 138.863L71.618 138.856Z" fill="#876D44"/>
<path d="M117.215 67.6893C116.143 65.1263 114.495 63.6434 112.935 62.0581C113.094 60.3044 113.179 58.5275 113.179 56.7275C113.179 47.1728 110.866 38.1762 106.787 30.2893C106.739 30.1968 106.693 30.101 106.644 30.0085C97.3828 12.339 79.2217 0.330292 58.334 0.330292C28.0416 0.330292 3.48579 25.5796 3.48579 56.7275C3.48579 59.3697 3.66496 61.9656 4.00701 64.512C-1.64492 74.1263 -1.49507 91.8685 5.5902 100.274C6.57399 101.44 11.1314 105.053 11.2714 105.413C11.9067 107.035 11.4213 114.879 11.8122 117.745C13.0273 126.692 19.6923 136.67 28.3966 139.289C30.0026 113.429 79.0523 112.834 88.7827 130.86C91.8514 136.548 88.8023 144.223 97.4479 136.29C101.875 132.228 106.256 124.222 107.384 118.29C108.009 115.001 107.608 107.609 108.253 105.631C108.621 104.498 116.449 98.6886 118.052 93.107C119.538 87.9283 119.277 72.6235 117.212 67.686L117.215 67.6893ZM9.97818 95.7558C10.0955 95.8284 10.2127 95.8912 10.3333 95.944C10.4473 96.2049 10.5645 96.4592 10.6851 96.7169C10.4408 96.4064 10.203 96.086 9.97818 95.7558Z" fill="#EBAE50"/>
<path d="M36.3777 17.4186H97.6499C87.6849 6.88289 73.7554 0.330292 58.334 0.330292C28.0416 0.330292 3.48579 25.5796 3.48579 56.7275C3.48579 59.3697 3.66496 61.9656 4.00701 64.512C-1.64492 74.1263 -1.49507 91.8685 5.5902 100.274C6.57399 101.44 11.1314 105.053 11.2714 105.413C11.9067 107.035 11.4213 114.879 11.8122 117.745C13.0273 126.692 19.6923 136.67 28.3966 139.289C28.7778 133.162 31.8236 128.456 36.3777 125.077V17.4186ZM9.97818 95.7558C10.0955 95.8284 10.2127 95.8912 10.3333 95.944C10.4473 96.2049 10.5645 96.4592 10.6851 96.7169C10.4408 96.4064 10.203 96.086 9.97818 95.7558Z" fill="#593D2E"/>
<path d="M83.0262 161.288H36.3774V30.4874L59.4999 28.9087L83.0262 30.4874V161.288Z" fill="#876D44"/>
<path d="M110.924 102.817C109.494 104.211 108.39 105.228 108.257 105.638C107.625 107.58 107.999 114.733 107.419 118.109C105.005 118.36 102.595 118.614 100.181 118.865C100.034 118.881 99.891 118.908 99.7509 118.938C98.3241 118.881 96.9233 119.773 97.0634 121.629C97.2556 124.229 97.2686 126.841 97.0764 129.44C96.9624 130.996 96.6627 132.528 96.4803 134.074C96.3239 135.408 96.7083 137.106 95.5779 138.05C94.6365 138.836 93.4312 139.913 92.1151 139.682C90.9294 139.474 90.7241 137.819 90.5319 136.848C90.9489 135.151 91.6493 133.684 92.5256 132.162C93.3204 130.781 93.9361 129.387 93.8351 127.756C93.7667 126.663 92.1542 125.649 91.3561 126.656C91.1118 126.966 90.9652 127.35 90.685 127.627C88.7012 129.595 85.5315 126.593 84.0558 125.441C82.7984 124.46 81.44 123.614 80.0262 122.881C76.9152 121.266 73.5436 120.186 70.1264 119.479C62.8033 117.963 55.0176 118.049 47.7597 119.905C42.2641 121.312 36.7653 123.855 32.9376 128.218C32.3936 128.839 31.2697 129.691 30.4065 129.711C29.4455 129.731 28.5855 128.717 27.8623 128.192C27.0381 127.594 25.8035 127.237 25.0836 127.957C24.5721 128.469 24.5656 129.305 24.7155 130.018C25.1911 132.281 26.9893 134.206 29.1946 134.807C28.7679 136.257 28.4975 137.753 28.3933 139.263C27.302 138.566 25.7709 138.668 24.8783 137.727C24.4092 137.231 24.217 136.534 24.0574 135.867C22.8651 130.827 22.914 125.702 23.4385 120.576C23.5916 119.066 22.0573 117.768 20.6695 117.768C20.2395 117.768 19.8584 117.861 19.5196 118.019H11.8545C11.8414 117.93 11.8251 117.838 11.8121 117.745C11.4212 114.875 11.9098 107.035 11.2714 105.413C11.1932 105.215 9.77937 104.036 8.36232 102.817L3.0166 96.238C3.2935 97.4104 3.24789 102.335 3.24789 102.335C3.24789 102.335 3.72676 108.164 3.90267 108.593C4.42388 109.868 3.92221 120.731 4.3229 123.69C6.08852 136.693 18.0211 144.775 25.4386 154.465C28.8331 158.9 31.6085 162.996 34.6511 166.467C34.4263 170.305 34.2016 174.146 33.9735 177.984C33.9019 179.212 35.6707 180.025 36.4754 179.034C38.1824 176.937 39.8861 174.767 41.2575 172.428C45.0787 174.981 49.7729 176.702 56.249 177.3C57.5423 179.562 57.5357 182.165 58.7932 184.411C59.1971 185.134 61.1321 186.97 61.7706 186.997C61.9661 187.007 63.2789 185.25 63.7447 184.067C64.1682 182.997 64.7872 180.609 64.7872 180.609C65.2302 179.496 64.7415 178.433 65.1976 177.33C69.6149 176.884 73.195 175.695 76.2865 173.938C76.7556 174.486 77.1791 175.081 77.5765 175.642C78.3094 176.679 79.0326 177.676 79.8666 178.578C80.0457 178.988 80.2738 179.381 80.5963 179.744C80.9351 180.127 81.3227 180.256 81.6908 180.213C81.6973 180.216 81.7039 180.223 81.7104 180.226C82.6453 180.897 83.9125 179.992 83.9158 178.941C83.9255 175.923 82.6095 173.238 82.5345 170.242C82.5248 169.859 82.528 169.479 82.5443 169.099C86.9095 164.783 90.6003 159.145 95.3499 152.989C101.054 145.597 112.485 135.95 114.286 126.61C114.866 123.614 114.303 108.6 115.055 108.068L115.615 103.309C116.348 102.331 116.586 96.74 116.795 95.878L110.918 102.804L110.924 102.817ZM67.0121 147.381C67.9601 145.303 75.0356 142.192 71.6183 138.856C70.6671 137.925 49.5611 137.363 48.1767 138.43C42.3749 142.892 57.4087 146.555 52.8155 153.794C49.0823 159.677 38.228 154.184 36.9966 148.365C32.7063 128.07 51.659 127.802 66.0185 128.849C77.9446 129.718 84.4077 134.024 82.7789 147.186C81.1826 160.08 62.1452 158.052 67.0154 147.387L67.0121 147.381Z" fill="#121212"/>
<path d="M88.9553 61.0012C80.1956 61.0012 72.6315 66.1799 69.0709 73.6804C63.1877 69.0929 55.7278 69.0962 49.5742 73.6936C46.2286 65.6647 38.3909 60.0302 29.2533 60.0302C17.0764 60.0302 7.20264 70.0375 7.20264 82.3863C7.20264 94.7352 17.0732 104.742 29.2533 104.742C41.4335 104.742 51.304 94.7352 51.304 82.3863C51.304 80.9331 51.1639 79.513 50.9 78.1357L51.1118 78.3768C56.236 73.7332 62.6404 73.7167 67.4258 78.3273L67.4877 78.2612C67.1098 79.8994 66.9046 81.6003 66.9046 83.354C66.9046 95.6996 76.7751 105.71 88.9553 105.71C101.135 105.71 111.006 95.7029 111.006 83.354C111.006 71.0052 101.135 60.9979 88.9553 60.9979V61.0012Z" fill="#FCF8C6"/>
<path d="M29.2566 100.102C38.9053 100.102 46.7271 92.172 46.7271 82.3897C46.7271 72.6073 38.9053 64.6772 29.2566 64.6772C19.6079 64.6772 11.7861 72.6073 11.7861 82.3897C11.7861 92.172 19.6079 100.102 29.2566 100.102Z" fill="#121212"/>
<path d="M88.9554 101.07C98.604 101.07 106.426 93.1397 106.426 83.3573C106.426 73.575 98.604 65.6449 88.9554 65.6449C79.3067 65.6449 71.4849 73.575 71.4849 83.3573C71.4849 93.1397 79.3067 101.07 88.9554 101.07Z" fill="#121212"/>
<path d="M105.168 27.2805C95.6105 11.008 78.2931 0.105687 58.4804 0C52.0956 0.0627517 45.3523 1.35742 38.9381 3.57354C19.1938 11.1863 4.8604 30.167 3.46289 52.7643L12.3203 45.4586L16.7604 32.5219C16.7604 32.5219 48.7761 28.879 59.5001 28.912C69.5335 28.9417 99.4773 32.5219 99.4773 32.5219L103.966 46.0498L112.931 52.7643C112.472 45.3265 110.605 38.2851 107.608 31.9043" fill="#FCF8C6"/>
<path d="M59.6435 42.4135C58.0798 42.4135 56.7117 42.8098 55.5063 43.3383L59.6435 34.6521C59.6761 34.52 59.8064 34.4539 59.9041 34.4539C60.0344 34.4539 60.1321 34.52 60.1973 34.6521L64.4322 43.6355C62.8359 42.8098 61.2397 42.4135 59.6435 42.4135Z" fill="#FCF8C6"/>
<path d="M69.8721 56.5822C69.8721 56.7473 69.7418 56.9124 69.5463 56.9124H50.2614C50.1636 56.9124 50.0659 56.8464 50.0008 56.7473C49.9356 56.6482 49.9356 56.5491 49.9682 56.45L52.5743 50.9345C54.8871 53.0152 57.2978 54.0721 59.8387 54.0721C63.0963 54.0721 65.7349 52.2886 67.266 50.9345L69.8395 56.417C69.8395 56.45 69.8721 56.5161 69.8721 56.5822Z" fill="#FCF8C6"/>
<path fill-rule="evenodd" clip-rule="evenodd" d="M56.7437 48.2593C56.7437 46.4044 58.1601 44.9085 59.8717 44.9085C61.6127 44.9085 63.0292 46.4044 62.9997 48.2593C62.9997 50.1142 61.5832 51.6102 59.8717 51.6102C58.1601 51.6102 56.7437 50.1142 56.7437 48.2593Z" fill="#252525"/>
<path d="M68.2107 47.8961C65.4092 45.1218 62.5099 43.7346 59.6432 43.7346C54.7568 43.7346 51.6621 47.797 51.5318 47.9621C51.4341 48.0942 51.4341 48.2594 51.5318 48.3584C54.1379 51.2979 56.9068 52.7841 59.8061 52.7841C64.6925 52.7841 68.0804 48.5236 68.2107 48.3254C68.341 48.1933 68.3084 48.0282 68.2107 47.8961ZM59.8712 52.5859C57.6235 52.5859 55.7992 50.6373 55.7992 48.2594C55.7992 45.8814 57.6235 43.9328 59.8712 43.9328C62.119 43.9328 63.9432 45.8814 63.9432 48.2594C63.9758 50.6373 62.1516 52.5859 59.8712 52.5859Z" fill="#FCF8C6"/>
</g>
<defs>
<clipPath id="clip0_206_193">
<rect width="119" height="187" fill="white"/>
</clipPath>
</defs>
</svg>
