<svg width="142" height="55" viewBox="0 0 142 55" fill="none" xmlns="http://www.w3.org/2000/svg">
<rect x="41.1978" y="0.0240479" width="54.2395" height="28.8462" rx="14.4231" fill="#EBAE50"/>
<path d="M48.1756 22.8214L57.0458 6.28039H60.1571L62.0352 22.8214H59.4104L58.9465 18.2166H53.414L51.038 22.8214H48.1756ZM54.5793 15.8859H58.7655L58.3921 11.8242C58.3544 11.3189 58.3129 10.7871 58.2677 10.229C58.2224 9.66326 58.1998 9.12773 58.1998 8.62238H58.1319C57.9433 9.11265 57.7246 9.62178 57.4757 10.1498C57.2268 10.6702 56.959 11.2057 56.6724 11.7563L54.5793 15.8859ZM67.1378 23.0477C66.3534 23.0477 65.667 22.9798 65.0787 22.844C64.4979 22.7158 63.9737 22.5272 63.506 22.2783V20.0042C63.9888 20.2909 64.5318 20.5322 65.1353 20.7283C65.7462 20.9169 66.3722 21.0112 67.0134 21.0112C67.5112 21.0112 67.9449 20.9433 68.3145 20.8075C68.6841 20.6718 68.9707 20.4794 69.1743 20.2305C69.3855 19.9741 69.4911 19.6648 69.4911 19.3028C69.4911 19.0388 69.4308 18.805 69.3101 18.6013C69.1894 18.3976 68.982 18.1902 68.6878 17.979C68.3937 17.7678 67.9864 17.5152 67.4659 17.221C66.9153 16.9117 66.4477 16.5987 66.063 16.2819C65.6859 15.9576 65.3955 15.5993 65.1918 15.2071C64.9957 14.8149 64.8977 14.3548 64.8977 13.8268C64.8977 13.0348 65.0787 12.3598 65.4407 11.8016C65.8103 11.2359 66.3308 10.806 67.0021 10.5118C67.6809 10.2101 68.4804 10.0593 69.4006 10.0593C70.1398 10.0593 70.8375 10.146 71.4937 10.3195C72.1499 10.4854 72.7571 10.7192 73.3153 11.0209L72.4441 12.9896C72.0292 12.7557 71.5691 12.5559 71.0638 12.3899C70.5584 12.2164 70.0153 12.1297 69.4346 12.1297C68.899 12.1297 68.4502 12.2542 68.0882 12.5031C67.7337 12.752 67.5564 13.1065 67.5564 13.5666C67.5564 13.8079 67.613 14.0267 67.7262 14.2228C67.8468 14.4114 68.0467 14.6037 68.3258 14.7998C68.6049 14.9959 68.9858 15.2222 69.4685 15.4786C69.9889 15.7653 70.4528 16.067 70.8601 16.3838C71.2674 16.7006 71.588 17.0664 71.8218 17.4812C72.0556 17.8885 72.1725 18.3826 72.1725 18.9633C72.1725 19.8458 71.9651 20.5926 71.5503 21.2035C71.143 21.8069 70.5622 22.267 69.8079 22.5838C69.0537 22.8931 68.1636 23.0477 67.1378 23.0477ZM74.3109 22.8214L78.0445 5.21687H80.692L79.0854 12.7293C78.9798 13.2498 78.8666 13.7325 78.746 14.1775C78.6328 14.615 78.5272 14.9959 78.4292 15.3202C78.3311 15.637 78.2557 15.8859 78.2029 16.067H78.2708L83.8938 10.2968H86.9486L81.45 15.8067L84.731 22.8214H81.7894L79.4135 17.4925L77.8408 18.6352L76.9697 22.8214H74.3109Z" fill="white"/>
<g filter="url(#filter0_d_224_57)">
<path d="M69.9129 36.2031C69.9129 40.216 68.783 43.0114 66.5234 44.5893C64.439 46.0503 61.5754 46.7808 57.9327 46.7808H49.6634V46.2256H51.5919V26.8819H49.6634V26.3268H58.6924C62.4326 26.3268 65.2377 27.0962 67.1078 28.6351C68.9778 30.1546 69.9129 32.6772 69.9129 36.2031ZM57.2898 46.2256H58.4002C60.3677 46.2256 61.7702 45.534 62.6079 44.151C63.465 42.7484 63.8936 40.4108 63.8936 37.1382V35.4434C63.8936 31.0604 63.0559 28.4209 61.3806 27.5248C60.582 27.0962 59.4521 26.8819 57.9911 26.8819H57.2898V46.2256ZM78.2698 39.9141H79.1172V37.6641C79.1172 35.8135 79.01 34.5765 78.7958 33.9532C78.601 33.3103 78.2114 32.9889 77.627 32.9889C77.2763 32.9889 76.9549 33.0863 76.6627 33.2811C76.39 33.4564 76.2536 33.7097 76.2536 34.0408C76.2536 34.3525 76.3121 34.6739 76.4289 35.0051H77.1594C77.3153 35.4142 77.3932 35.9109 77.3932 36.4953C77.3932 37.0602 77.1497 37.557 76.6627 37.9855C76.1757 38.3946 75.5621 38.5992 74.8218 38.5992C73.1466 38.5992 72.3089 37.7907 72.3089 36.1739C72.3089 33.7779 74.3446 32.5798 78.4159 32.5798C80.734 32.5798 82.3314 32.9792 83.208 33.7779C84.1041 34.5571 84.5521 35.9986 84.5521 38.1024V44.0341C84.5521 45.047 84.8346 45.5535 85.3995 45.5535C86.0618 45.5535 86.4514 44.5503 86.5683 42.5439L87.0066 42.5731C86.9287 44.2873 86.6072 45.4659 86.0423 46.1087C85.4774 46.7515 84.5521 47.073 83.2664 47.073C80.9288 47.073 79.5847 46.3522 79.2341 44.9107C78.9808 45.6509 78.601 46.1964 78.0945 46.547C77.588 46.8976 76.8478 47.073 75.8738 47.073C72.9907 47.073 71.5492 45.8944 71.5492 43.5373C71.5492 42.1543 72.0946 41.2095 73.1855 40.703C74.2959 40.177 75.9906 39.9141 78.2698 39.9141ZM77.101 43.5081C77.101 44.5211 77.1497 45.1737 77.2471 45.4659C77.364 45.7581 77.5685 45.9042 77.8607 45.9042C78.1724 45.9042 78.4549 45.6607 78.7081 45.1737C78.9808 44.6672 79.1172 43.9756 79.1172 43.099V40.3816H78.9126C77.7049 40.3816 77.101 41.2679 77.101 43.0406V43.5081ZM97.0532 33.6902C96.3325 33.6902 95.6994 34.1577 95.1539 35.0928C94.6085 36.0278 94.3358 37.1382 94.3358 38.4238V46.2548H96.4104V46.7808H87.2938V46.2548H88.9009V33.398H87.2938V32.872H94.3358V35.6772C94.589 34.6837 95.076 33.924 95.7968 33.398C96.5175 32.8526 97.3357 32.5798 98.2513 32.5798C99.1668 32.5798 99.9071 32.8428 100.472 33.3688C101.056 33.8753 101.349 34.6058 101.349 35.5603C101.349 36.4953 101.134 37.2161 100.706 37.7226C100.277 38.229 99.6149 38.4823 98.7188 38.4823C97.8422 38.4823 97.1896 38.1901 96.761 37.6057C96.352 37.0213 96.3033 36.2129 96.6149 35.1804H97.6669C98.1539 34.1869 97.9493 33.6902 97.0532 33.6902ZM106.056 30.8559C105.024 30.8559 104.284 30.5929 103.836 30.0669C103.407 29.541 103.193 28.8884 103.193 28.1092C103.193 27.33 103.427 26.6871 103.894 26.1807C104.381 25.6742 105.112 25.4209 106.086 25.4209C107.06 25.4209 107.8 25.6547 108.306 26.1222C108.813 26.5703 109.066 27.2228 109.066 28.08C109.066 28.9176 108.823 29.5897 108.336 30.0961C107.849 30.6026 107.089 30.8559 106.056 30.8559ZM101.644 32.872H108.803V46.2548H110.439V46.7808H101.761V46.2548H103.368V33.398H101.644V32.872ZM127.558 46.7808H120.896L120.574 44.6477C120.263 45.4269 119.795 46.0308 119.172 46.4593C118.568 46.8684 117.662 47.073 116.454 47.073C113.435 47.073 111.925 45.4464 111.925 42.1932V33.398H110.289V32.872H117.36V42.8945C117.36 44.0633 117.438 44.8328 117.594 45.2029C117.769 45.573 118.1 45.7581 118.587 45.7581C119.094 45.7581 119.542 45.4561 119.932 44.8522C120.321 44.2484 120.516 43.4107 120.516 42.3393V33.398H119.172V32.872H125.951V46.2548H127.558V46.7808ZM128.828 47.073V41.8426H129.179C129.685 43.5373 130.367 44.7256 131.224 45.4074C132.081 46.0892 133.153 46.4301 134.438 46.4301C136.425 46.4301 137.419 45.797 137.419 44.5308C137.419 43.9854 137.175 43.5763 136.688 43.3036C135.929 42.875 134.955 42.5439 133.766 42.3101C132.442 41.9595 131.331 41.4919 130.435 40.9075C129.364 40.2063 128.828 39.0959 128.828 37.5765C128.828 36.057 129.296 34.8493 130.231 33.9532C131.166 33.0376 132.412 32.5798 133.971 32.5798C134.925 32.5798 135.909 32.8039 136.922 33.2519C137.292 33.4077 137.575 33.4857 137.769 33.4857C137.964 33.4857 138.13 33.4175 138.266 33.2811C138.403 33.1448 138.568 32.8915 138.763 32.5214H139.084V36.9921H138.734C137.74 34.4597 136.201 33.1935 134.117 33.1935C133.201 33.1935 132.52 33.359 132.072 33.6902C131.624 34.0019 131.4 34.4012 131.4 34.8882C131.4 35.1804 131.468 35.4142 131.604 35.5895C131.74 35.7453 131.848 35.8622 131.925 35.9401C132.003 36.0181 132.13 36.1057 132.305 36.2031C132.481 36.281 132.627 36.3492 132.744 36.4077C132.861 36.4466 133.036 36.5051 133.27 36.583C133.523 36.6609 133.708 36.7096 133.825 36.7291C135.149 37.0602 136.104 37.3524 136.688 37.6057C137.273 37.8394 137.828 38.1316 138.354 38.4823C139.425 39.2225 139.961 40.4205 139.961 42.0763C139.961 43.7127 139.474 44.9594 138.5 45.8165C137.526 46.6541 136.192 47.073 134.497 47.073C133.289 47.073 132.12 46.7905 130.99 46.2256C130.757 46.0697 130.572 45.9918 130.435 45.9918C130.007 45.9918 129.588 46.3522 129.179 47.073H128.828Z" fill="white"/>
</g>
<g clip-path="url(#clip0_224_57)">
<path d="M25.8862 36.914C25.6004 36.7541 20.5344 37.9689 20.2722 38.3101C19.1727 39.738 22.9884 39.6459 22.3534 41.6549C21.8371 43.2872 18.9014 42.6788 18.2384 41.3784C15.9272 36.8428 20.4273 35.569 23.9161 34.9001C26.8137 34.3443 28.6275 34.9522 29.0751 38.1752C29.5134 41.3328 24.8473 42.0679 25.3309 39.2297C25.4249 38.6768 26.9137 37.4877 25.8874 36.9154L25.8862 36.914Z" fill="#876D44"/>
<path d="M32.2347 17.1369C31.8165 16.598 31.3295 16.3519 30.8569 16.0758C30.7836 15.65 30.691 15.2235 30.5767 14.797C29.9699 12.5327 28.8474 10.5484 27.3746 8.93978C27.357 8.92098 27.3401 8.9012 27.3226 8.8824C23.9933 5.2865 18.9023 3.60047 13.924 4.93439C6.70429 6.86892 2.45508 14.4207 4.43294 21.8022C4.60072 22.4283 4.80826 23.0321 5.05148 23.6137C4.31491 26.253 5.47724 30.448 7.69964 31.9874C8.00815 32.2009 9.32376 32.7661 9.38001 32.8425C9.63438 33.1862 10.0168 35.0761 10.292 35.7305C11.1497 37.7732 13.3718 39.712 15.6126 39.7768C14.3533 33.5458 26.0058 30.2726 29.4696 33.923C30.5621 35.0748 30.3227 37.0885 31.8796 34.6564C32.6767 33.411 33.2126 31.2339 33.1046 29.7563C33.0448 28.9368 32.4799 27.2107 32.508 26.7007C32.5238 26.4087 34.0206 24.5321 34.0482 23.107C34.0734 21.7849 33.0395 18.1746 32.2337 17.1364L32.2347 17.1369ZM8.45856 30.6365C8.49112 30.6462 8.52306 30.6536 8.55514 30.6584C8.59888 30.713 8.64298 30.7658 8.68807 30.8191C8.61012 30.7611 8.5331 30.7004 8.45856 30.6365Z" fill="#EBAE50"/>
<path d="M9.77618 10.3861L24.3795 6.4732C21.3355 4.61283 17.5995 3.94955 13.924 4.93439C6.70429 6.86892 2.45508 14.4207 4.43294 21.8022C4.60072 22.4283 4.80826 23.0321 5.05147 23.6137C4.31491 26.253 5.47724 30.448 7.69964 31.9874C8.00814 32.2009 9.32376 32.7661 9.38001 32.8425C9.63438 33.1862 10.0168 35.0761 10.292 35.7305C11.1497 37.7732 13.3718 39.712 15.6126 39.7768C15.3144 38.3006 15.7415 36.9907 16.6124 35.8992L9.77618 10.3861ZM8.45856 30.6365C8.49112 30.6462 8.52306 30.6536 8.55514 30.6584C8.59888 30.713 8.64298 30.7658 8.68806 30.8191C8.61012 30.7611 8.5331 30.7004 8.45856 30.6365Z" fill="#593D2E"/>
<path d="M30.0299 41.5015L18.9118 44.4806L10.6061 13.4832L16.0167 11.6325L21.7242 10.5042L30.0299 41.5015Z" fill="#876D44"/>
<path d="M32.966 25.8633C32.7137 26.2849 32.5151 26.5965 32.5092 26.7021C32.4819 27.2026 33.0255 28.874 33.1016 29.7109C32.5422 29.9246 31.9838 30.1388 31.4245 30.3524C31.3906 30.3657 31.3581 30.3811 31.3266 30.3971C30.983 30.4749 30.7057 30.7757 30.857 31.2066C31.0678 31.8103 31.2368 32.4286 31.3561 33.0568C31.4277 33.4328 31.4535 33.8151 31.5082 34.193C31.5557 34.5192 31.7551 34.8969 31.5457 35.193C31.3712 35.4394 31.1523 35.7715 30.8239 35.8008C30.5281 35.8272 30.3741 35.4482 30.2667 35.2303C30.2583 34.8014 30.3321 34.4092 30.4442 33.9924C30.546 33.6145 30.6043 33.2449 30.4766 32.8647C30.3909 32.61 29.9422 32.4727 29.8159 32.7623C29.7774 32.8515 29.7668 32.9517 29.7176 33.0353C29.3698 33.6285 28.4237 33.1194 27.9988 32.9405C27.6368 32.7884 27.2594 32.6748 26.8759 32.5913C26.0319 32.4072 25.1597 32.3666 24.3004 32.4173C22.4588 32.5258 20.6086 33.0433 18.9967 33.9467C17.7762 34.6311 16.6272 35.5849 15.9919 36.8633C15.9017 37.0451 15.6879 37.3188 15.4835 37.3787C15.2557 37.4447 14.9863 37.2594 14.7806 37.1811C14.5462 37.0921 14.2293 37.0864 14.1035 37.303C14.0141 37.457 14.0656 37.6554 14.1466 37.8149C14.4036 38.3207 14.9544 38.6621 15.5182 38.6637C15.5086 39.0346 15.5392 39.4064 15.6102 39.7708C15.3058 39.6753 14.9474 39.7973 14.6749 39.6313C14.5316 39.5438 14.4416 39.391 14.3612 39.2431C13.757 38.1248 13.4431 36.907 13.2427 35.6588C13.1833 35.2913 12.7352 35.0817 12.4045 35.1703C12.302 35.1978 12.217 35.244 12.1463 35.3032L10.3195 35.7927C10.3107 35.7724 10.3009 35.7516 10.292 35.7305C10.0165 35.0753 9.63513 33.186 9.37999 32.8425C9.34877 32.8005 8.93694 32.6114 8.52182 32.4131L6.82999 31.1954C6.97043 31.4555 7.27225 32.6254 7.27225 32.6254C7.27225 32.6254 7.75654 33.9763 7.82573 34.0668C8.0309 34.3356 8.6011 36.9419 8.88451 37.6176C10.131 40.5863 13.4881 41.7394 15.8713 43.5621C16.962 44.3965 17.8835 45.1898 18.8291 45.8181C19.0192 46.7419 19.2095 47.6665 19.3989 48.5906C19.4598 48.8863 19.933 48.9659 20.0618 48.6797C20.3355 48.0737 20.6038 47.4506 20.7822 46.8089C21.855 47.1699 23.083 47.2779 24.6645 47.006C25.1164 47.4595 25.2801 48.0767 25.7224 48.5286C25.8646 48.6742 26.4424 48.9858 26.5962 48.9513C26.6434 48.9412 26.8447 48.441 26.8807 48.131C26.9137 47.8504 26.9096 47.245 26.9096 47.245C26.9445 46.9529 26.7605 46.7321 26.7991 46.4416C27.8236 46.0538 28.6014 45.5434 29.2266 44.9296C29.3732 45.0296 29.5119 45.1434 29.6423 45.2511C29.8828 45.45 30.1185 45.6402 30.3745 45.8006C30.4432 45.8862 30.5226 45.9648 30.6225 46.0303C30.7276 46.0995 30.8281 46.1052 30.9131 46.0716C30.9149 46.0719 30.9169 46.0731 30.9186 46.0734C31.184 46.1726 31.4286 45.8772 31.3627 45.6281C31.1733 44.9121 30.6892 44.3599 30.4811 43.6548C30.4544 43.5646 30.4311 43.4744 30.4108 43.3833C31.1771 42.0816 31.6988 40.5099 32.4399 38.7476C33.33 36.6317 35.4418 33.6155 35.2781 31.287C35.226 30.5401 34.1383 27.018 34.2839 26.844L34.1153 25.6803C34.2279 25.4018 33.9295 24.0616 33.9244 23.844L32.9636 25.8606L32.966 25.8633ZM25.3299 39.2283C25.4239 38.6755 26.9127 37.4863 25.8864 36.9141C25.6006 36.7541 20.5346 37.9689 20.2724 38.3101C19.1729 39.738 22.9886 39.6459 22.3536 41.6549C21.8373 43.2873 18.9016 42.6789 18.2386 41.3784C15.9274 36.8428 20.4275 35.5691 23.9163 34.9001C26.8139 34.3444 28.6277 34.9523 29.0753 38.1753C29.5136 41.3328 24.8475 42.068 25.3311 39.2297L25.3299 39.2283Z" fill="#252525"/>
<path d="M25.0745 17.3567C22.9868 17.9161 21.5128 19.6264 21.1405 21.6313C19.447 20.9199 17.6692 21.397 16.4946 22.8795C15.1874 21.1905 12.9616 20.3557 10.7838 20.9393C7.88159 21.7169 6.16377 24.719 6.94791 27.6454C7.73205 30.5719 10.72 32.3131 13.6229 31.5352C16.5259 30.7574 18.2429 27.7555 17.4588 24.8291C17.3665 24.4847 17.243 24.1571 17.0926 23.8475L17.1584 23.8912C18.0848 22.4635 19.6102 22.0506 21.0435 22.8376L21.054 22.818C21.068 23.2303 21.1271 23.6465 21.2384 24.0621C22.0224 26.9878 25.0105 28.7297 27.9135 27.9519C30.8164 27.174 32.5335 24.1722 31.7493 21.2457C30.9652 18.3193 27.9773 16.5781 25.0743 17.3559L25.0745 17.3567Z" fill="#FCF8C6"/>
<path d="M13.3293 30.4354C15.6289 29.8192 16.9896 27.4404 16.3684 25.1221C15.7472 22.8039 13.3795 21.4241 11.0798 22.0403C8.78023 22.6565 7.41957 25.0353 8.04074 27.3535C8.66191 29.6718 11.0297 31.0515 13.3293 30.4354Z" fill="#252525"/>
<path d="M27.6188 26.8522C29.9185 26.236 31.2791 23.8572 30.658 21.539C30.0368 19.2208 27.669 17.841 25.3694 18.4572C23.0698 19.0734 21.7091 21.4522 22.3303 23.7704C22.9515 26.0886 25.3192 27.4684 27.6188 26.8522Z" fill="#252525"/>
<path d="M26.7975 8.33016C23.4862 5.08426 18.6666 3.60655 13.9378 4.84678C12.4201 5.2694 10.8951 6.00684 9.50711 6.94164C5.28475 10.0066 3.07384 15.4201 4.17567 20.8644L5.8228 18.5675L6.05956 15.2182C6.05956 15.2182 13.4587 12.3103 16.0167 11.6333C18.4099 10.9996 25.7739 9.93571 25.7739 9.93571L27.7028 12.8549L30.2658 13.8736C29.684 12.1403 28.792 10.5908 27.6726 9.2701" fill="#FCF8C6"/>
<path d="M16.9084 14.8237C16.5358 14.9235 16.2348 15.1048 15.9811 15.307L16.4156 12.9844C16.415 12.951 16.4418 12.927 16.4651 12.9208C16.4962 12.9125 16.5237 12.9219 16.5476 12.949L18.1273 14.8075C17.6945 14.7137 17.2889 14.7218 16.9084 14.8237Z" fill="#FCF8C6"/>
<path d="M20.2457 17.5282C20.2562 17.5673 20.2356 17.6148 20.189 17.6272L15.5928 18.8588C15.5695 18.8651 15.542 18.8556 15.5202 18.8363C15.4983 18.817 15.492 18.7935 15.4935 18.768L15.7644 17.2945C16.4478 17.6398 17.0894 17.7364 17.695 17.5741C18.4714 17.366 18.987 16.7749 19.266 16.3562L20.2275 17.4911C20.2296 17.4989 20.2415 17.5125 20.2457 17.5282Z" fill="#FCF8C6"/>
<path d="M17.7269 16.0892C17.7884 16.3186 17.6608 16.5599 17.445 16.6178C17.2292 16.6756 17.0097 16.5272 16.9482 16.2979C16.8868 16.0686 17.0143 15.8272 17.2185 15.7725C17.4343 15.7146 17.6655 15.8599 17.7269 16.0892Z" fill="#252525"/>
<path d="M17.0989 15.3179C16.6486 15.4385 16.3807 15.9297 16.5108 16.415C16.6408 16.9003 17.1183 17.1917 17.5686 17.0711C18.0189 16.9504 18.2868 16.4592 18.1567 15.974C18.0345 15.4866 17.5569 15.1951 17.0989 15.3179ZM17.447 16.6171C17.2218 16.6775 16.9929 16.5375 16.93 16.3027C16.8671 16.0679 16.9953 15.8322 17.2205 15.7718C17.4457 15.7115 17.6746 15.8515 17.7375 16.0863C17.8004 16.3211 17.6722 16.5568 17.447 16.6171Z" fill="#252525"/>
<path d="M19.2984 15.5758C18.4545 15.0973 17.6754 14.9537 16.9922 15.1368C15.8276 15.4488 15.348 16.6092 15.3274 16.6566C15.3125 16.6942 15.323 16.7333 15.3526 16.7505C16.1603 17.2807 16.9147 17.4561 17.6057 17.2709C18.7703 16.9589 19.3072 15.7328 19.3256 15.6776C19.3483 15.6379 19.3301 15.6009 19.2984 15.5758ZM17.6086 17.2198C17.0729 17.3633 16.5144 17.0181 16.3634 16.4545C16.2124 15.891 16.5234 15.3127 17.0591 15.1692C17.5949 15.0256 18.1534 15.3709 18.3044 15.9344C18.4631 16.4959 18.1521 17.0742 17.6086 17.2198Z" fill="#FCF8C6"/>
</g>
<defs>
<filter id="filter0_d_224_57" x="49.6636" y="25.4209" width="91.6974" height="21.652" filterUnits="userSpaceOnUse" color-interpolation-filters="sRGB">
<feFlood flood-opacity="0" result="BackgroundImageFix"/>
<feColorMatrix in="SourceAlpha" type="matrix" values="0 0 0 0 0 0 0 0 0 0 0 0 0 0 0 0 0 0 127 0" result="hardAlpha"/>
<feOffset dx="1.4"/>
<feComposite in2="hardAlpha" operator="out"/>
<feColorMatrix type="matrix" values="0 0 0 0 0.651042 0 0 0 0 0.651042 0 0 0 0 0.651042 0 0 0 0.75 0"/>
<feBlend mode="normal" in2="BackgroundImageFix" result="effect1_dropShadow_224_57"/>
<feBlend mode="normal" in="SourceGraphic" in2="effect1_dropShadow_224_57" result="shape"/>
</filter>
<clipPath id="clip0_224_57">
<rect width="29.3624" height="45.8787" fill="white" transform="translate(0 8.58142) rotate(-15)"/>
</clipPath>
</defs>
</svg>
